<svg xmlns="http://www.w3.org/2000/svg" width="15" height="15" viewBox="0 0 15 15">
  <g id="contF" transform="translate(-201.253 -202.937)">
    <path id="Path_7" data-name="Path 7" d="M211.195,227.943a.589.589,0,0,0-.152-.261l-.112-.086a.6.6,0,0,0-.449-.967.535.535,0,0,0-.5.288.542.542,0,0,0-.549-.431.56.56,0,0,0-.571.6.62.62,0,0,0-.167-.024.585.585,0,0,0-.527.826.456.456,0,0,0-.139-.018l-.157.021a.591.591,0,0,0-.261.152l-.093.12a.589.589,0,0,0-.081.3v.024a.445.445,0,0,0,.051.228v0a.585.585,0,0,0-.271-.063.56.56,0,0,0-.571.6.44.44,0,0,0-.13-.071.608.608,0,0,0-.646.122l-.093.12a.587.587,0,0,0-.079.265l-.064-.049a.588.588,0,0,0-.3-.081h-.048a.607.607,0,0,0-.591.591l.021.157c0,.006.005.011.007.016a.548.548,0,0,0-.389-.147.577.577,0,0,0-.549.755.545.545,0,0,0-.4-.163.574.574,0,0,0-.557.717.616.616,0,0,0-.179-.028.592.592,0,0,0-.5.891.662.662,0,0,0-.12-.012.6.6,0,0,0-.258,1.127l-.089.012a.593.593,0,0,0-.261.152l-.093.12a.588.588,0,0,0-.081.3v.024a.607.607,0,0,0,.591.591l.025,0a.6.6,0,0,0,.306,1.1.547.547,0,0,0,.39-.148.539.539,0,0,0,.539.386.565.565,0,0,0,.566-.657.6.6,0,0,0,.281-.007l.141-.06a.6.6,0,0,0,.212-.212l.048-.1a.439.439,0,0,0,.07-.22.447.447,0,0,0-.011-.236.459.459,0,0,0-.041-.108.607.607,0,0,0,.3-.738.619.619,0,0,0,.172.025.561.561,0,0,0,.569-.619.618.618,0,0,0,.167.024.552.552,0,0,0,.567-.542.568.568,0,0,0,.313.088.553.553,0,0,0,.568-.553.565.565,0,0,0,.336.1.554.554,0,0,0,.568-.555.759.759,0,0,0,.334.1l.157-.021a.59.59,0,0,0,.261-.152l.093-.12a.588.588,0,0,0,.081-.3v-.008a.589.589,0,0,0,.289.076h.024a.607.607,0,0,0,.591-.591l0-.03.031,0a.6.6,0,0,0,.483-.921.125.125,0,0,0,.03-.006l.141-.06a.592.592,0,0,0,.212-.212l.048-.095a.439.439,0,0,0,.07-.22.517.517,0,0,0-.088-.4.607.607,0,0,0,.527-.585Zm-1.187.314a.588.588,0,0,0,.08.167c-.016,0-.031.005-.047.01l-.141.06a.593.593,0,0,0-.212.212l-.048.1a.441.441,0,0,0-.07.22.518.518,0,0,0,.093.4.567.567,0,0,0-.438.609c-.016,0-.033,0-.049,0h-.024a.606.606,0,0,0-.59.58.456.456,0,0,0-.062-.028.445.445,0,0,0-.228-.051l-.157.021a.593.593,0,0,0-.261.152l-.093.12a.588.588,0,0,0-.079.271.568.568,0,0,0-.314-.089.553.553,0,0,0-.568.553.564.564,0,0,0-.334-.1.552.552,0,0,0-.567.542.569.569,0,0,0-.313-.088.561.561,0,0,0-.569.619.619.619,0,0,0-.167-.024.581.581,0,0,0-.542.787.619.619,0,0,0-.172-.026.588.588,0,0,0-.513.86l-.071.03a.592.592,0,0,0-.212.212l-.048.095a.71.71,0,0,0-.077.36.649.649,0,0,0-.1-.01.548.548,0,0,0-.39.148.538.538,0,0,0-.539-.385.094.094,0,0,0-.028,0,.6.6,0,0,0,.113-.087l.093-.12a.591.591,0,0,0,.081-.3v-.024a.566.566,0,0,0-.342-.529.6.6,0,0,0,.439-.889.645.645,0,0,0,.12.012.573.573,0,0,0,.557-.717.616.616,0,0,0,.179.028.577.577,0,0,0,.549-.755.545.545,0,0,0,.4.163.581.581,0,0,0,.542-.785l.112.086a.589.589,0,0,0,.3.081h.048a1.142,1.142,0,0,1,1.393-.578l.093-.12a.588.588,0,0,0,.081-.295.569.569,0,0,0,.313.088.587.587,0,0,0,.521-.84.672.672,0,0,0,.287.079l.157-.021a.59.59,0,0,0,.262-.152l.093-.12a.589.589,0,0,0,.081-.3v-.024a.445.445,0,0,0-.051-.228h0a.663.663,0,0,0,.126.012.56.56,0,0,0,.571-.6.626.626,0,0,0,.167.024.535.535,0,0,0,.5-.292.566.566,0,0,0,.209.325.438.438,0,0,0-.1.167.446.446,0,0,0-.051.228Z" transform="translate(0 -18.054)" fill="#5a6670"/>
    <path id="Path_8" data-name="Path 8" d="M256.285,206.308a.791.791,0,0,0,0-1.187.768.768,0,0,0,.174-.757.612.612,0,0,0-.545-.462.268.268,0,0,1-.339.032.371.371,0,0,1-.149-.355.334.334,0,0,1,.231-.29.556.556,0,0,0-1.071.258.51.51,0,0,0-.362-.142.608.608,0,0,0-.538.441.776.776,0,0,0,.139.748c-.01,0-.018,0-.028,0a.621.621,0,0,0-.555.508.75.75,0,0,0,.252.767.7.7,0,0,0-.378.541.777.777,0,0,0,.2.656.342.342,0,0,0-.034.014.713.713,0,0,0-.364.627l.021.182a.718.718,0,0,0,.152.3l.02.018-.018.011-.048.028a.7.7,0,0,0-.282.683.567.567,0,0,0,.07.252l.092.138a.69.69,0,0,0-.348.461.81.81,0,0,0,.089.6.583.583,0,0,0-.462.333.78.78,0,0,0-.029.631h-.023a.558.558,0,0,0-.468.282.764.764,0,0,0-.076.607.558.558,0,0,0-.1-.011.523.523,0,0,0-.417.2.715.715,0,0,0-.154.493c-.016,0-.031-.006-.048-.006a.511.511,0,0,0-.4.176.692.692,0,0,0-.171.451.553.553,0,0,0-.146-.02.533.533,0,0,0-.436.226.732.732,0,0,0-.13.534l-.043.01a.617.617,0,0,0-.353.315.767.767,0,0,0-.06.529l.072.22a.762.762,0,0,0,.271.409.172.172,0,0,0,.015.008.721.721,0,0,0,.145.509.526.526,0,0,0,.424.21.081.081,0,0,0,.028,0,.658.658,0,0,0,.59.665l.157-.025a.577.577,0,0,0,.261-.176l.093-.139a.753.753,0,0,0,.068-.211.509.509,0,0,0,.074.1l.12.107a.529.529,0,0,0,.3.094l.157-.025a.579.579,0,0,0,.261-.176l.024-.028a.831.831,0,0,0,.173-.484v-.021a.393.393,0,0,0,.2.045l.158-.025a.579.579,0,0,0,.261-.176l.093-.139a.766.766,0,0,0,.081-.346V215.5a.6.6,0,0,0-.025-.183.534.534,0,0,0,.6-.283.771.771,0,0,0,.059-.628.572.572,0,0,0,.128.014.559.559,0,0,0,.466-.283.764.764,0,0,0,.075-.6l.088-.014a.579.579,0,0,0,.261-.176l.093-.139a.769.769,0,0,0,.081-.346v-.028a.831.831,0,0,0-.173-.484.487.487,0,0,0-.047-.045.557.557,0,0,0,.746-.289.77.77,0,0,0-.15-.9c.011,0,.021,0,.032,0a.6.6,0,0,0,.529-.411.783.783,0,0,0-.091-.732,3.6,3.6,0,0,1,.585-1.734.718.718,0,0,0-.358-.63.646.646,0,0,0,.516-.564A.737.737,0,0,0,256.285,206.308Zm-.867,2.389a2.285,2.285,0,0,1-.572,1.644.777.777,0,0,0,.217.651c-.011,0-.021,0-.033,0a.619.619,0,0,0-.545.475.769.769,0,0,0,.189.761.375.375,0,0,0-.035-.019.4.4,0,0,0-.228-.059l-.157.025a.581.581,0,0,0-.261.176l-.093.139a.767.767,0,0,0-.081.346v.028a.381.381,0,0,1-.384.536.78.78,0,0,0-.039.585.564.564,0,0,0-.128-.015.555.555,0,0,0-.467.276.76.76,0,0,0-.082.6.4.4,0,0,0-.141-.022l-.157.025a.577.577,0,0,0-.261.176l-.093.139a.767.767,0,0,0-.081.346v.043a.516.516,0,0,0-.2-.04l-.157.025a.579.579,0,0,0-.261.176l-.024.028a.528.528,0,0,0-.122.22.558.558,0,0,0-.035.11.525.525,0,0,0-.077-.11.615.615,0,0,0-.418-.2l-.05.008a.7.7,0,0,0-.264-.546.576.576,0,0,0-.02-.226l-.038-.12a.633.633,0,0,0,.416-.6.558.558,0,0,0,.146.02.523.523,0,0,0,.417-.2.715.715,0,0,0,.154-.493c.016,0,.031.006.048.006a.558.558,0,0,0,.471-.283.764.764,0,0,0,.074-.61.55.55,0,0,0,.1.011.571.571,0,0,0,.49-.317.775.775,0,0,0,.034-.651h.023a2.1,2.1,0,0,1,.966-1.55.386.386,0,0,1-.275-.376.4.4,0,0,1,.251-.4l.048-.028a.7.7,0,0,0,.282-.683.566.566,0,0,0-.07-.252l-.093-.139c0-.005-.01-.008-.015-.013a.722.722,0,0,0,.329-.607l-.021-.182a.718.718,0,0,0-.152-.3l-.063-.057a1.749,1.749,0,0,1,.466-1.745.79.79,0,0,0-.163-.644c.01,0,.018,0,.028,0a.591.591,0,0,0,.566-.61.51.51,0,0,0,.362.142.523.523,0,0,0,.262-.067,1.553,1.553,0,0,1,0,1.553.736.736,0,0,0,.309.546.756.756,0,0,0-.263.649.712.712,0,0,0,.358.584.615.615,0,0,0-.487.424.785.785,0,0,0,.087.7Z" transform="translate(-40.349)" fill="#5a6670"/>
    <path id="Path_9" data-name="Path 9" d="M214.26,231.663a.975.975,0,0,0-1.328.348c-.7,1.579-2.513,2.081-3.908,2.861-1.321.739-3.506,2.468-2.668,4.221.5,1.042,1.966.279,1.759-.73.079-.507.707-1.03,1.065-1.3a12.5,12.5,0,0,1,1.995-1.111,6.632,6.632,0,0,0,3.433-2.963A1,1,0,0,0,214.26,231.663Z" transform="translate(-4.176 -22.345)" fill="#5a6670"/>
    <path id="Path_10" data-name="Path 10" d="M258.6,209.394c-.071,3.509-.65,7.582-3.468,9.484-1.084.732-.108,2.714.98,1.98,3.445-2.325,4.34-7.123,4.429-11.463A.979.979,0,1,0,258.6,209.394Z" transform="translate(-45.041 -4.546)" fill="#5a6670"/>
  </g>
</svg>
