<svg xmlns="http://www.w3.org/2000/svg" width="27" height="24.019" viewBox="0 0 27 24.019">
  <g id="cont" transform="translate(-201.259 -202.937)">
    <path id="Path_7" data-name="Path 7" d="M219.6,229.175a1.087,1.087,0,0,0-.281-.482l-.206-.158a1.1,1.1,0,0,0-.829-1.785.988.988,0,0,0-.917.531,1,1,0,0,0-1.014-.795,1.033,1.033,0,0,0-1.053,1.1,1.145,1.145,0,0,0-.308-.044,1.08,1.08,0,0,0-.973,1.525.841.841,0,0,0-.257-.033l-.29.039a1.091,1.091,0,0,0-.482.281l-.171.221a1.087,1.087,0,0,0-.149.551v.044a.822.822,0,0,0,.094.42s0,.006,0,.009a1.079,1.079,0,0,0-.5-.116,1.033,1.033,0,0,0-1.053,1.1.813.813,0,0,0-.239-.131,1.122,1.122,0,0,0-1.192.226l-.171.221a1.083,1.083,0,0,0-.145.489l-.118-.091a1.084,1.084,0,0,0-.551-.149h-.088a1.121,1.121,0,0,0-1.091,1.091l.039.29c0,.011.01.02.013.03a1.011,1.011,0,0,0-.717-.271,1.065,1.065,0,0,0-1.013,1.393,1.006,1.006,0,0,0-.742-.3,1.059,1.059,0,0,0-1.028,1.324,1.136,1.136,0,0,0-.33-.051,1.093,1.093,0,0,0-.92,1.645,1.218,1.218,0,0,0-.222-.022,1.106,1.106,0,0,0-.476,2.08l-.165.022a1.094,1.094,0,0,0-.482.281l-.171.221a1.085,1.085,0,0,0-.149.551v.044a1.121,1.121,0,0,0,1.091,1.091l.047-.006a1.106,1.106,0,0,0,.565,2.025,1.01,1.01,0,0,0,.72-.273.994.994,0,0,0,.994.712,1.043,1.043,0,0,0,1.045-1.212,1.1,1.1,0,0,0,.519-.012l.261-.11a1.1,1.1,0,0,0,.392-.391l.088-.176a.811.811,0,0,0,.13-.406.826.826,0,0,0-.02-.435.847.847,0,0,0-.076-.2,1.12,1.12,0,0,0,.548-1.362,1.143,1.143,0,0,0,.318.047,1.036,1.036,0,0,0,1.05-1.142,1.144,1.144,0,0,0,.308.045,1.018,1.018,0,0,0,1.047-1,1.048,1.048,0,0,0,.578.163,1.021,1.021,0,0,0,1.048-1.021,1.043,1.043,0,0,0,.62.188,1.022,1.022,0,0,0,1.049-1.025,1.4,1.4,0,0,0,.617.191l.29-.039a1.089,1.089,0,0,0,.482-.281l.171-.221a1.085,1.085,0,0,0,.149-.551v-.015a1.086,1.086,0,0,0,.533.14h.044a1.121,1.121,0,0,0,1.091-1.091l-.008-.055c.02,0,.037.005.058.005a1.1,1.1,0,0,0,.892-1.7c.018,0,.037-.006.056-.011l.261-.11a1.093,1.093,0,0,0,.392-.392l.088-.175a.811.811,0,0,0,.13-.406.954.954,0,0,0-.162-.732,1.12,1.12,0,0,0,.972-1.08Zm-2.191.58a1.085,1.085,0,0,0,.147.308c-.029.006-.058.01-.087.018l-.261.11a1.094,1.094,0,0,0-.392.391l-.088.176a.813.813,0,0,0-.13.406.957.957,0,0,0,.172.745,1.047,1.047,0,0,0-.809,1.123c-.03,0-.06-.006-.091-.006h-.044a1.118,1.118,0,0,0-1.089,1.07.841.841,0,0,0-.115-.051.822.822,0,0,0-.42-.094l-.29.039a1.094,1.094,0,0,0-.482.281l-.171.221a1.086,1.086,0,0,0-.146.5,1.048,1.048,0,0,0-.58-.164,1.021,1.021,0,0,0-1.049,1.021,1.041,1.041,0,0,0-.617-.188,1.018,1.018,0,0,0-1.047,1,1.051,1.051,0,0,0-.578-.163,1.036,1.036,0,0,0-1.05,1.142,1.145,1.145,0,0,0-.308-.045,1.073,1.073,0,0,0-1,1.452,1.141,1.141,0,0,0-.318-.048,1.086,1.086,0,0,0-.947,1.587l-.131.055a1.093,1.093,0,0,0-.392.392l-.088.175a1.31,1.31,0,0,0-.142.664,1.194,1.194,0,0,0-.189-.019,1.011,1.011,0,0,0-.72.273.993.993,0,0,0-.994-.711c-.018,0-.034,0-.051.005a1.1,1.1,0,0,0,.209-.161l.171-.221a1.09,1.09,0,0,0,.149-.551v-.044a1.044,1.044,0,0,0-.632-.977,1.1,1.1,0,0,0,.81-1.64,1.194,1.194,0,0,0,.222.022,1.058,1.058,0,0,0,1.028-1.324,1.137,1.137,0,0,0,.331.051,1.065,1.065,0,0,0,1.013-1.393,1.006,1.006,0,0,0,.742.3,1.073,1.073,0,0,0,1-1.449l.206.159a1.087,1.087,0,0,0,.551.149h.088a2.107,2.107,0,0,1,2.571-1.066l.171-.221a1.085,1.085,0,0,0,.149-.544,1.05,1.05,0,0,0,.577.162,1.083,1.083,0,0,0,.962-1.55,1.239,1.239,0,0,0,.53.146l.29-.039a1.09,1.09,0,0,0,.483-.28l.171-.221a1.087,1.087,0,0,0,.149-.551v-.045a.822.822,0,0,0-.094-.42v0a1.224,1.224,0,0,0,.233.023,1.033,1.033,0,0,0,1.053-1.1,1.156,1.156,0,0,0,.308.044.988.988,0,0,0,.915-.538,1.045,1.045,0,0,0,.385.6.809.809,0,0,0-.192.308.823.823,0,0,0-.094.42Z" transform="translate(0 -17.076)" fill="#5a6670"/>
    <path id="Path_8" data-name="Path 8" d="M262.329,208.288a1.144,1.144,0,0,0-.005-1.884,1.1,1.1,0,0,0-.684-1.935.556.556,0,1,1-.474-.974,1.092,1.092,0,0,0-.931-.558,1.015,1.015,0,0,0-1.045.968,1.03,1.03,0,0,0-.668-.225,1.1,1.1,0,0,0-.737,1.887c-.018,0-.034-.005-.051-.005a1.1,1.1,0,0,0-.56,2.024,1.126,1.126,0,0,0-.324,1.9c-.021.009-.043.012-.063.023a1.117,1.117,0,0,0-.671.995l.039.289a1.09,1.09,0,0,0,.281.48l.037.029-.034.017-.088.044a1.047,1.047,0,0,0-.521,1.084.807.807,0,0,0,.13.4l.169.219a1.132,1.132,0,0,0-.477,1.692,1.082,1.082,0,0,0-.906,1.53c-.015,0-.027,0-.042,0A1.066,1.066,0,0,0,253.7,217.7a1.189,1.189,0,0,0-.179-.018,1.032,1.032,0,0,0-1.053,1.1c-.03,0-.057-.009-.088-.009a1.017,1.017,0,0,0-1.046.995,1.174,1.174,0,0,0-.27-.032,1.041,1.041,0,0,0-1.045,1.207.741.741,0,0,0-.08.015,1.1,1.1,0,0,0-.652.5,1.065,1.065,0,0,0-.11.839l.132.35a1.216,1.216,0,0,0,.5.65c.009.006.019.008.028.013a1.034,1.034,0,0,0,1.05,1.142c.019,0,.034,0,.051-.005a1.119,1.119,0,0,0,1.088,1.056l.29-.039a1.088,1.088,0,0,0,.482-.28l.171-.22a1.082,1.082,0,0,0,.125-.335.827.827,0,0,0,.136.161l.221.17a1.089,1.089,0,0,0,.551.149l.29-.039a1.091,1.091,0,0,0,.482-.28l.044-.044a1.211,1.211,0,0,0,.32-.769c0-.012,0-.022,0-.034a.824.824,0,0,0,.36.072l.291-.039a1.091,1.091,0,0,0,.482-.28l.171-.22a1.079,1.079,0,0,0,.149-.549v-.044a.823.823,0,0,0-.047-.291,1.194,1.194,0,0,0,.228.023,1.073,1.073,0,0,0,.993-1.468,1.223,1.223,0,0,0,.236.023A1.066,1.066,0,0,0,259,219.76l.162-.022a1.091,1.091,0,0,0,.482-.28l.171-.22a1.084,1.084,0,0,0,.149-.549v-.044a1.211,1.211,0,0,0-.32-.769.841.841,0,0,0-.086-.072,1.1,1.1,0,0,0,1.1-1.884c.021,0,.039.006.06.006a1.1,1.1,0,0,0,.807-1.814,5.213,5.213,0,0,1,1.08-2.752,1.122,1.122,0,0,0-.661-1A1.105,1.105,0,0,0,262.329,208.288Zm-1.6,3.793a3.333,3.333,0,0,1-1.055,2.609,1.133,1.133,0,0,0,.4,1.034c-.021,0-.039-.006-.06-.006a1.106,1.106,0,0,0-.657,1.962c-.022-.009-.041-.023-.064-.03a.824.824,0,0,0-.42-.094l-.29.039a1.094,1.094,0,0,0-.482.28l-.171.22a1.081,1.081,0,0,0-.149.549v.044a.818.818,0,0,0,.058.322,1.082,1.082,0,0,0-.838,1.458,1.2,1.2,0,0,0-.236-.024,1.063,1.063,0,0,0-1.013,1.392.838.838,0,0,0-.261-.035l-.29.039a1.088,1.088,0,0,0-.482.28l-.171.221a1.08,1.08,0,0,0-.149.549v.069a1.088,1.088,0,0,0-.36-.063l-.29.039a1.091,1.091,0,0,0-.482.28l-.044.044a.814.814,0,0,0-.226.35.8.8,0,0,0-.064.174.845.845,0,0,0-.142-.174,1.217,1.217,0,0,0-.771-.319l-.092.012a1.064,1.064,0,0,0-.487-.866.793.793,0,0,0-.036-.359l-.071-.19a1.025,1.025,0,0,0,.768-.96,1.184,1.184,0,0,0,.27.032,1.032,1.032,0,0,0,1.053-1.1c.03,0,.057.009.088.009a1.066,1.066,0,0,0,1.006-1.418,1.183,1.183,0,0,0,.179.018,1.077,1.077,0,0,0,.967-1.537c.015,0,.027,0,.043,0a3.33,3.33,0,0,1,1.782-2.461.632.632,0,0,1-.045-1.229l.088-.044a1.047,1.047,0,0,0,.521-1.084.806.806,0,0,0-.13-.4l-.171-.22c-.008-.008-.018-.013-.027-.021a1.118,1.118,0,0,0,.608-.964l-.039-.289a1.089,1.089,0,0,0-.281-.48l-.117-.09a2.525,2.525,0,0,1,.86-2.77,1.128,1.128,0,0,0-.3-1.022c.018,0,.034.005.051.005a1.014,1.014,0,0,0,1.045-.968,1.03,1.03,0,0,0,.668.225,1.091,1.091,0,0,0,.484-.107,2.171,2.171,0,0,1,.006,2.465,1.145,1.145,0,0,0,.571.867,1.126,1.126,0,0,0,.175,1.957,1.1,1.1,0,0,0-.738,1.785Z" transform="translate(-34.65 0)" fill="#5a6670"/>
    <path id="Path_9" data-name="Path 9" d="M221.1,231.774a1.8,1.8,0,0,0-2.451.643c-1.289,2.914-4.637,3.84-7.212,5.28-2.437,1.364-6.47,4.554-4.924,7.79.919,1.923,3.628.514,3.247-1.347.146-.935,1.305-1.9,1.966-2.4a23.066,23.066,0,0,1,3.681-2.051c2.524-1.239,5.149-2.786,6.335-5.468A1.851,1.851,0,0,0,221.1,231.774Z" transform="translate(-3.55 -20.729)" fill="#5a6670"/>
    <path id="Path_10" data-name="Path 10" d="M261.928,210.011c-.131,5.464-1.2,11.807-6.4,14.769-2,1.14-.2,4.226,1.808,3.083,6.358-3.62,8.01-11.093,8.174-17.851C265.565,207.713,261.983,207.714,261.928,210.011Z" transform="translate(-38.641 -3.865)" fill="#5a6670"/>
  </g>
</svg>
